<?xml version="1.0" encoding="utf-8"?>
<!-- Generator: Adobe Illustrator 18.1.1, SVG Export Plug-In . SVG Version: 6.00 Build 0)  -->
<svg version="1.1" baseProfile="basic" id="Layer_1"
	 xmlns="http://www.w3.org/2000/svg" xmlns:xlink="http://www.w3.org/1999/xlink" x="0px" y="0px" width="40px" height="40px"
	 viewBox="0 0 40 40" xml:space="preserve">
<path fill="#ffb105" d="M35.4,15.4C35.4,23.9,20,40,20,40S4.6,23.9,4.6,15.4C4.6,7,11.5,0.1,20,0.1C28.5,0.1,35.4,7,35.4,15.4z"/>
<path fill="#ff7601" d="M20.1,39.9c0.8-0.9,15.3-16.2,15.3-24.5c0-8.5-6.8-15.3-15.3-15.4V39.9z"/>
<g>
	<circle fill="#ff9303" cx="20.1" cy="15.2" r="11.8"/>
	<circle opacity="0.5" fill="#ff7601" cx="20.1" cy="15.2" r="11.8"/>
	<path fill="#FFFFFF" d="M20.1,24.2c-5,0-9.2-4.1-9.2-9.2c0-5,4.1-9.2,9.2-9.2s9.2,4.1,9.2,9.2C29.3,20.1,25.2,24.2,20.1,24.2z"/>
</g>
</svg>
