<?xml version="1.0" encoding="utf-8"?>
<!DOCTYPE svg PUBLIC "-//W3C//DTD SVG 1.1//EN" "http://www.w3.org/Graphics/SVG/1.1/DTD/svg11.dtd">
<svg version="1.1" id="icon-map" xmlns="http://www.w3.org/2000/svg" xmlns:xlink="http://www.w3.org/1999/xlink" x="0px" y="0px"
	 width="40px" height="40px" viewBox="0 0 40 40" enable-background="new 0 0 40 40" xml:space="preserve">
<path fill="#575656" d="M19.799,22.33c-4.402,0-7.985-3.571-7.985-7.96c0-4.388,3.583-7.959,7.985-7.959
	c4.403,0,7.986,3.571,7.986,7.959C27.785,18.759,24.202,22.33,19.799,22.33z M19.799,8.305c-3.355,0-6.085,2.721-6.085,6.065
	c0,3.345,2.729,6.066,6.085,6.066s6.086-2.721,6.086-6.066C25.885,11.025,23.154,8.305,19.799,8.305z"/>
<path fill="#575656" d="M19.757,39c-0.235,0-0.472-0.087-0.655-0.263C18.525,38.192,5,25.24,5,14.706C5,6.597,11.62,0,19.757,0
	s14.757,6.598,14.757,14.707c0,10.676-13.529,23.495-14.105,24.035C20.225,38.913,19.99,39,19.757,39z M19.757,1.894
	C12.668,1.894,6.9,7.641,6.9,14.706c0,8.48,10.158,19.292,12.859,22.017c2.705-2.704,12.854-13.428,12.854-22.017
	C32.613,7.641,26.846,1.894,19.757,1.894z"/>
</svg>