<?xml version="1.0" encoding="utf-8"?>
<!DOCTYPE svg PUBLIC "-//W3C//DTD SVG 1.1//EN" "http://www.w3.org/Graphics/SVG/1.1/DTD/svg11.dtd">
<svg version="1.1" id="icon-map" xmlns="http://www.w3.org/2000/svg" xmlns:xlink="http://www.w3.org/1999/xlink" x="0px" y="0px"
	 width="40px" height="40px" viewBox="0 0 40 40" enable-background="new 0 0 40 40" xml:space="preserve">
<g>
	<path fill="#EBAE2B" d="M-241.4,416.3c0,8.5-15.4,24.6-15.4,24.6s-15.4-16.1-15.4-24.6c0-8.5,6.9-15.4,15.4-15.4
		C-248.3,400.9-241.4,407.8-241.4,416.3z"/>
	<path fill="#272425" d="M-256.8,440.8c0.8-0.9,15.3-16.3,15.3-24.5c0-8.5-6.9-15.4-15.3-15.4V440.8z"/>
	<g>
		<circle fill="#EBAE2B" cx="-256.7" cy="416" r="11.9"/>
		<circle opacity="0.5" fill="#272425" cx="-256.7" cy="416" r="11.9"/>
		<path fill="#FFFFFF" d="M-256.7,425.1c-5.1,0-9.2-4.1-9.2-9.2c0-5.1,4.1-9.2,9.2-9.2c5.1,0,9.2,4.1,9.2,9.2
			C-247.5,421-251.6,425.1-256.7,425.1z"/>
	</g>
</g>
</svg>
